PathFileType	4	(X/Y/Z)	0_coords_data.trc
DataRate	CameraRate	NumFrames	NumMarkers	Units	OrigDataRate	OrigDataStartFrame	OrigNumFrames
30.0	30.0	7	21	m	30.0	30	78
Frame#	Time	THUMB_TIP	THUMB_IP	THUMB_MCP	THUMB_CMC	INDEX_TIP	INDEX_DIP	INDEX_PIP	INDEX_MCP	MIDDLE_TIP	MIDDLE_DIP	MIDDLE_PIP	MIDDLE_MCP	RING_TIP	RING_DIP	RING_PIP	RING_MCP	PINKY_TIP	PINKY_DIP	PINKY_PIP	PINKY_MCP	WRIST
X1	Y1	Z1	X2	Y2	Z2	X3	Y3	Z3	X4	Y4	Z4	X5	Y5	Z5	X6	Y6	Z6	X7	Y7	Z7	X8	Y8	Z8	X9	Y9	Z9	X10	Y10	Z10	X11	Y11	Z11	X12	Y12	Z12	X13	Y13	Z13	X14	Y14	Z14	X15	Y15	Z15	X16	Y16	Z16	X17	Y17	Z17	X18	Y18	Z18	X19	Y19	Z19	X20	Y20	Z20	X21	Y21	Z21
29	0.9666666666666667	0.01750239944458008	-0.06726219940185547	0.9397360229492188	0.00511417007446289	-0.06437640380859375	0.9669829711914063	-0.007686349868774414	-0.07009369659423828	0.9979149780273437	-0.019473499298095703	-0.04362509918212891	1.0211699829101561	0.012586700439453124	-0.047323101043701174	0.9006270141601562	-0.008242070198059082	-0.050963199615478516	0.9120289916992188	-0.028824399948120118	-0.054499900817871094	0.9278720092773437	-0.05171139907836914	-0.0594182014465332	0.9650999755859375	0.02071059989929199	-0.02548699951171875	0.894531982421875	-0.00041060701012611306	-0.026567899703979492	0.9076810302734375	-0.02670840072631836	-0.028192399978637695	0.9252899780273437	-0.054769599914550784	-0.03285079956054687	0.96325	0.026278900146484374	-0.003467910051345825	0.9122130126953125	0.003940310001373291	-6.4267203211784e-05	0.916948974609375	-0.024588100433349608	0.000720977008342742	0.9282540283203125	-0.047017799377441404	-0.009699640274047851	0.9666480102539062	0.014999199867248535	0.011926199913024902	0.9336820068359375	-0.002319050073623657	0.01942799949645996	0.9380640258789062	-0.02184630012512207	0.02307270050048828	0.9466160278320312	-0.036245899200439455	0.01192099952697754	0.9739450073242187	-0.04769469833374024	-0.022435300827026366	1.0503599853515626
30	1.0	0.017179399490356444	-0.06732759857177735	0.9395679931640625	0.005113999843597412	-0.0645	0.966593994140625	-0.007787199974060058	-0.07003410339355469	0.9978920288085937	-0.019482400894165038	-0.04375120162963867	1.0211400146484375	0.012628999710083008	-0.047331199645996094	0.9008569946289062	-0.008138279914855957	-0.05100289916992187	0.9121329956054688	-0.02909040069580078	-0.05454710006713867	0.9278930053710938	-0.05188010025024414	-0.059453601837158206	0.965094970703125	0.02074329948425293	-0.02562150001525879	0.8947620239257813	-0.00041165000200271603	-0.026657800674438476	0.9077589721679687	-0.026762100219726564	-0.0282406005859375	0.92527001953125	-0.05485499954223633	-0.032822399139404296	0.9631279907226562	0.026328699111938476	-0.003692780017852783	0.9126010131835938	0.0039571900367736815	-0.000249528005719184	0.9173400268554688	-0.02478459930419922	0.000674751996994018	0.9282520141601562	-0.047094699859619144	-0.009711669921875	0.966823974609375	0.01495170021057129	0.011775199890136718	0.9339760131835938	-0.0024174599647521972	0.019403600692749025	0.9380759887695312	-0.0219064998626709	0.02301490020751953	0.94660400390625	-0.03583229827880859	0.01202929973602295	0.973718994140625	-0.047813400268554684	-0.0224778995513916	1.050469970703125
31	1.0333333333333334	0.01709830093383789	-0.06714649963378906	0.939583984375	0.005010869979858399	-0.06446630096435547	0.9664719848632812	-0.007835000038146973	-0.07000050354003906	0.9978670043945312	-0.01960059928894043	-0.043731601715087894	1.0210900268554688	0.012808500289916992	-0.047308300018310545	0.9011240234375	-0.008044230461120605	-0.050950401306152346	0.9123140258789062	-0.029022499084472655	-0.05453580093383789	0.9278939819335937	-0.05190539932250977	-0.05947060012817383	0.9649749755859375	0.02087030029296875	-0.0256781005859375	0.894989013671875	-0.000317066013813018	-0.026689399719238283	0.90789697265625	-0.02679759979248047	-0.028273000717163085	0.9251859741210937	-0.05477920150756836	-0.03280149841308594	0.9639359741210938	0.026333099365234376	-0.003823709964752197	0.9127750244140626	0.00403465986251831	-0.000326530992984771	0.917291015625	-0.02476609992980957	0.0006169890165328981	0.92827099609375	-0.04712879943847656	-0.009750399589538574	0.9667830200195312	0.014854499816894531	0.011784199714660645	0.933844970703125	-0.0024958300590515133	0.01934320068359375	0.938093017578125	-0.021924400329589845	0.022966899871826173	0.9466389770507813	-0.0359984016418457	0.012014699935913085	0.9736380004882812	-0.047794998168945314	-0.022568300247192384	1.0506600341796875
32	1.0666666666666667	0.01707819938659668	-0.06706300354003907	0.9394320068359375	0.00502111005783081	-0.06446510314941406	0.966333984375	-0.007837049961090088	-0.06999469757080078	0.9978040161132813	-0.01957460021972656	-0.043753398895263675	1.0210399780273438	0.01304699993133545	-0.04729940032958985	0.9012379760742187	-0.007925620079040527	-0.05093539810180664	0.9122760009765625	-0.028840999603271484	-0.05453789901733398	0.9278499755859375	-0.05196989822387695	-0.059548099517822264	0.9648670043945312	0.02102750015258789	-0.025776899337768555	0.8952579956054687	-0.00023653799295425402	-0.02677039909362793	0.9079210205078125	-0.026778900146484375	-0.028340900421142578	0.925219970703125	-0.05511169815063476	-0.03296440124511719	0.963052001953125	0.026433099746704103	-0.003954190015792846	0.9130380249023438	0.004103889942169189	-0.00041630700230598405	0.917406005859375	-0.024550899505615235	0.000561074018478393	0.92822998046875	-0.04722829818725586	-0.009836130142211914	0.9667509765625	0.014929300308227538	0.011633099555969239	0.9339639892578125	-0.0025232698917388914	0.019245399475097656	0.9380819702148437	-0.02199340057373047	0.022922399520874024	0.946614990234375	-0.036632598876953124	0.011753199577331543	0.97397998046875	-0.04769029998779297	-0.022788299560546874	1.0504000244140625
33	1.1	0.017073200225830077	-0.0670177001953125	0.939322998046875	0.004999030113220215	-0.06446410369873047	0.966343994140625	-0.007824550151824951	-0.06998149871826172	0.9979760131835937	-0.01958259963989258	-0.04371879959106445	1.0211500244140626	0.013268400192260742	-0.04729249954223633	0.9015419921875	-0.007666999816894531	-0.05098580169677734	0.9124190063476563	-0.02874169921875	-0.054621898651123046	0.9279760131835938	-0.051979198455810546	-0.05964630126953125	0.9649019775390625	0.021260799407958983	-0.025961999893188478	0.8956409912109375	-6.0263000428676004e-05	-0.02692449951171875	0.9082329711914062	-0.026755300521850586	-0.028438800811767577	0.9253070068359375	-0.054978900909423825	-0.03304769897460937	0.9628629760742188	0.026547399520874024	-0.004183279991149902	0.9132410278320312	0.00419959020614624	-0.000599654972553253	0.9174849853515625	-0.024311899185180664	0.00039685800671577403	0.9283280029296875	-0.047292900085449216	-0.009916970252990723	0.9668629760742188	0.014837400436401367	0.011489999771118165	0.9340079956054688	-0.00248782992362976	0.019086599349975586	0.9381480102539063	-0.021927200317382812	0.022800899505615233	0.9466160278320312	-0.03613069915771484	0.011760199546813965	0.9737949829101562	-0.047663398742675785	-0.022882999420166014	1.0503199462890624
34	1.1333333333333333	0.01710530090332031	-0.06723400115966797	0.9392969970703124	0.005188250064849852	-0.06461009979248047	0.9664190063476562	-0.007825940132141114	-0.07001260375976562	0.9980330200195312	-0.019417699813842774	-0.04388449859619141	1.0209500122070312	0.013495100021362305	-0.047538398742675785	0.90185302734375	-0.007581540107727051	-0.05117950057983398	0.9126240234375	-0.02868779945373535	-0.05477170181274414	0.9280590209960937	-0.05203710174560547	-0.059785301208496094	0.9650609741210937	0.021481599807739258	-0.02629520034790039	0.8958889770507813	7.8553602099418e-05	-0.027159099578857423	0.9082760009765625	-0.02661599922180176	-0.02862030029296875	0.9253270263671876	-0.05500299835205078	-0.033198501586914064	0.9630570068359375	0.02681679916381836	-0.004541339874267578	0.9136199951171875	0.004401309967041016	-0.0009036960005760191	0.917655029296875	-0.024229400634765624	0.000200382992625236	0.9284320068359375	-0.04722800064086914	-0.010064499855041504	0.9667689819335937	0.015027999877929688	0.011177900314331055	0.934218017578125	-0.002343339920043945	0.018849300384521483	0.9380640258789062	-0.02187280082702637	0.02262350082397461	0.9466110229492187	-0.036208301544189456	0.011601499557495117	0.9737789916992188	-0.047705299377441404	-0.022960500717163088	1.0503299560546875
35	1.1666666666666667	0.017353799819946288	-0.06735959625244141	0.9394329833984375	0.005282390117645264	-0.06475679779052734	0.9662360229492187	-0.007789939880371094	-0.07022720336914062	0.9980850219726562	-0.01938640022277832	-0.04394400024414063	1.0214099731445312	0.01384179973602295	-0.0477588005065918	0.9022000122070313	-0.00735483980178833	-0.051418899536132816	0.91281201171875	-0.028429500579833983	-0.05494409942626953	0.92810400390625	-0.051976398468017576	-0.05993600082397461	0.9650980224609375	0.0218125	-0.026670299530029296	0.8962069702148437	0.000403313010931015	-0.02745009994506836	0.9085469970703125	-0.026446399688720704	-0.02885420036315918	0.9252990112304688	-0.05497489929199219	-0.033318801879882814	0.96325	0.027046100616455078	-0.004928070068359375	0.9138359985351563	0.004853340148925781	-0.001231490015983581	0.9181220092773438	-0.024247299194335936	-5.320849828422e-06	0.9283939819335938	-0.04713040161132812	-0.010211400032043457	0.9668499755859375	0.015227100372314454	0.01086359977722168	0.9343880004882813	-0.00220307993888855	0.018628599166870118	0.9381909790039062	-0.02162929916381836	0.02243280029296875	0.9467670288085938	-0.03610029983520508	0.011423500061035156	0.9737449951171875	-0.04766859817504883	-0.022778799057006836	1.050280029296875
